<svg xmlns="http://www.w3.org/2000/svg" xmlns:xlink="http://www.w3.org/1999/xlink" preserveAspectRatio="xMidYMid" width="532" height="126" viewBox="0 0 532 126">
  <defs>
    <style>
      .cls-1 {
        fill: #fff;
        fill-rule: evenodd;
      }
    </style>

    <clipPath id="clip-path-1">
      <rect x="-235.406" y="-319.406" width="1024" height="768"/>
    </clipPath>
  </defs>
  <g clip-path="url(#clip-path-1)">
    <path d="M522.249,44.553 L522.249,123.273 L487.049,123.273 L487.049,44.553 L467.369,44.553 L467.369,16.553 L541.929,16.553 L541.929,44.553 L522.249,44.553 ZM453.370,116.153 C450.222,119.193 446.195,121.593 441.290,123.353 C436.382,125.113 430.570,125.993 423.850,125.993 C419.795,125.993 416.035,125.805 412.570,125.433 C409.102,125.058 406.035,124.605 403.370,124.073 C400.275,123.538 397.450,122.900 394.890,122.153 L394.890,90.153 C397.235,90.900 399.690,91.488 402.250,91.913 C404.382,92.448 406.810,92.873 409.530,93.193 C412.250,93.513 414.995,93.673 417.770,93.673 C422.675,93.673 425.130,91.860 425.130,88.233 C425.130,86.848 424.382,85.433 422.890,83.993 C421.395,82.553 419.502,80.953 417.210,79.193 C414.915,77.433 412.462,75.488 409.850,73.353 C407.235,71.220 404.782,68.768 402.490,65.993 C400.195,63.220 398.302,60.100 396.810,56.633 C395.315,53.168 394.570,49.193 394.570,44.713 C394.570,39.700 395.475,35.273 397.290,31.433 C399.102,27.593 401.610,24.393 404.810,21.833 C408.010,19.273 411.770,17.328 416.090,15.993 C420.410,14.660 425.022,13.993 429.930,13.993 C432.490,13.993 435.050,14.128 437.610,14.393 C440.170,14.660 442.462,14.900 444.490,15.113 C446.835,15.433 449.130,15.753 451.370,16.073 L451.370,45.993 C450.515,45.888 449.555,45.780 448.490,45.673 C447.635,45.568 446.675,45.460 445.610,45.353 C444.542,45.248 443.422,45.193 442.250,45.193 C441.610,45.193 440.810,45.220 439.850,45.273 C438.890,45.328 437.982,45.460 437.130,45.673 C436.275,45.888 435.530,46.260 434.890,46.793 C434.250,47.328 433.930,48.073 433.930,49.033 C433.930,49.888 434.650,50.953 436.090,52.233 C437.530,53.513 439.290,55.008 441.370,56.713 C443.450,58.420 445.742,60.393 448.250,62.633 C450.755,64.873 453.050,67.433 455.130,70.313 C457.210,73.193 458.970,76.448 460.410,80.073 C461.850,83.700 462.570,87.753 462.570,92.233 C462.570,96.928 461.822,101.328 460.330,105.433 C458.835,109.540 456.515,113.113 453.370,116.153 ZM370.371,95.593 C365.304,100.660 359.356,104.660 352.531,107.593 C345.704,110.525 338.451,111.993 330.771,111.993 C323.091,111.993 315.836,110.525 309.011,107.593 C302.184,104.660 296.236,100.660 291.171,95.593 C286.104,90.528 282.104,84.580 279.171,77.753 C276.236,70.928 274.771,63.673 274.771,55.993 C274.771,48.313 276.236,41.060 279.171,34.233 C282.104,27.408 286.104,21.460 291.171,16.393 C296.236,11.328 302.184,7.328 309.011,4.393 C315.836,1.460 323.091,-0.007 330.771,-0.007 C338.451,-0.007 345.704,1.460 352.531,4.393 C359.356,7.328 365.304,11.328 370.371,16.393 C375.436,21.460 379.436,27.408 382.371,34.233 C385.304,41.060 386.771,48.313 386.771,55.993 C386.771,63.673 385.304,70.928 382.371,77.753 C379.436,84.580 375.436,90.528 370.371,95.593 ZM351.411,47.273 C350.236,44.553 348.636,42.180 346.611,40.153 C344.584,38.128 342.211,36.528 339.491,35.353 C336.771,34.180 333.864,33.593 330.771,33.593 C327.676,33.593 324.771,34.180 322.051,35.353 C319.331,36.528 316.956,38.128 314.931,40.153 C312.904,42.180 311.304,44.553 310.131,47.273 C308.956,49.993 308.371,52.900 308.371,55.993 C308.371,59.088 308.956,61.993 310.131,64.713 C311.304,67.433 312.904,69.808 314.931,71.833 C316.956,73.860 319.331,75.460 322.051,76.633 C324.771,77.808 327.676,78.393 330.771,78.393 C333.864,78.393 336.771,77.808 339.491,76.633 C342.211,75.460 344.584,73.860 346.611,71.833 C348.636,69.808 350.236,67.433 351.411,64.713 C352.584,61.993 353.171,59.088 353.171,55.993 C353.171,52.900 352.584,49.993 351.411,47.273 ZM229.772,123.273 L213.772,96.233 L213.772,123.273 L179.692,123.273 L179.692,16.553 L216.492,16.553 C223.317,16.553 229.637,17.460 235.452,19.273 C241.265,21.088 246.305,23.753 250.572,27.273 C254.837,30.793 258.172,35.140 260.572,40.313 C262.972,45.488 264.172,51.433 264.172,58.153 C264.172,63.488 263.425,68.020 261.932,71.753 C260.437,75.488 258.785,78.580 256.972,81.033 C254.837,83.808 252.437,86.153 249.772,88.073 L269.772,123.273 L229.772,123.273 ZM225.852,48.073 C223.025,46.260 219.585,45.353 215.532,45.353 L213.772,45.353 L213.772,69.033 L215.532,69.033 C219.585,69.033 223.025,68.128 225.852,66.313 C228.677,64.500 230.092,61.460 230.092,57.193 C230.092,52.928 228.677,49.888 225.852,48.073 ZM138.893,56.393 L167.213,56.393 L167.213,82.953 L138.893,82.953 L138.893,123.273 L104.813,123.273 L104.813,16.553 L167.693,16.553 L167.693,44.553 L138.893,44.553 L138.893,56.393 ZM76.254,109.673 C70.866,114.153 64.254,117.540 56.414,119.833 C48.574,122.128 39.639,123.273 29.614,123.273 L0.014,123.273 L0.014,16.553 L29.614,16.553 C39.639,16.553 48.574,17.673 56.414,19.913 C64.254,22.153 70.866,25.513 76.254,29.993 C81.639,34.473 85.746,40.048 88.574,46.713 C91.399,53.380 92.814,61.088 92.814,69.833 C92.814,78.580 91.399,86.288 88.574,92.953 C85.746,99.620 81.639,105.193 76.254,109.673 ZM52.654,52.553 C48.279,48.820 42.094,46.953 34.094,46.953 L34.094,92.873 C42.094,92.873 48.279,90.980 52.654,87.193 C57.026,83.408 59.214,77.620 59.214,69.833 C59.214,62.048 57.026,56.288 52.654,52.553 Z" transform="translate(-4.97)" class="cls-1"/>
  </g>
</svg>
