<svg xmlns="http://www.w3.org/2000/svg" xmlns:xlink="http://www.w3.org/1999/xlink" preserveAspectRatio="xMidYMid" width="280.125" height="62" viewBox="0 0 280.125 62">
  <defs>
    <style>
      .cls-1 {
        fill: #232323;
        fill-rule: evenodd;
      }
    </style>
  </defs>
  <path d="M264.263,35.962 L264.624,36.611 L266.210,39.351 L277.673,59.683 L277.745,59.827 C277.890,60.043 277.890,60.259 277.890,60.476 C277.890,61.341 277.313,61.990 276.520,61.990 L266.859,61.990 C266.354,61.990 265.921,61.701 265.705,61.341 L265.561,61.124 L253.232,39.351 L251.718,36.611 L246.311,36.611 L246.311,60.548 C246.311,61.341 245.662,61.990 244.941,61.990 L236.506,61.990 C235.712,61.990 235.064,61.341 235.064,60.548 L235.064,25.364 L245.374,25.364 L235.785,8.493 L235.785,8.421 L235.064,7.123 L235.064,1.428 C235.064,0.707 235.712,0.058 236.506,0.058 L257.558,0.058 C264.119,0.058 269.815,1.860 273.852,5.321 C277.818,8.637 280.125,13.396 280.125,18.370 C280.125,25.941 274.717,33.655 264.263,35.962 ZM257.558,11.305 L250.348,11.305 L256.765,22.696 L258.279,25.364 C259.000,25.364 259.721,25.292 260.370,25.220 C266.210,24.427 268.805,21.254 268.805,18.370 C268.805,14.982 265.345,11.305 257.558,11.305 ZM194.324,61.990 C177.237,61.990 163.322,48.075 163.322,30.988 C163.322,13.900 177.237,-0.014 194.324,-0.014 C211.411,-0.014 225.326,13.900 225.326,30.988 C225.326,48.075 211.411,61.990 194.324,61.990 ZM194.324,11.233 C183.437,11.233 174.569,20.101 174.569,30.988 C174.569,41.874 183.437,50.670 194.324,50.670 C205.210,50.670 214.006,41.874 214.006,30.988 C214.006,20.101 205.210,11.233 194.324,11.233 ZM161.588,11.233 L147.817,11.233 L147.817,60.187 C147.817,61.124 147.168,61.918 146.447,61.918 L137.940,61.918 C137.219,61.918 136.570,61.124 136.570,60.187 L136.570,11.233 L122.511,11.233 C121.718,11.233 121.069,10.584 121.069,9.791 L121.069,1.355 C121.069,0.562 121.718,-0.014 122.511,-0.014 L161.588,-0.014 C162.525,-0.014 163.318,0.562 163.318,1.355 L163.318,9.791 C163.318,10.584 162.525,11.233 161.588,11.233 ZM87.899,61.990 C70.812,61.990 56.897,48.075 56.897,30.988 C56.897,13.900 70.812,-0.014 87.899,-0.014 C104.986,-0.014 118.901,13.900 118.901,30.988 C118.901,48.075 104.986,61.990 87.899,61.990 ZM87.899,11.233 C77.013,11.233 68.144,20.101 68.144,30.988 C68.144,41.874 77.013,50.670 87.899,50.670 C98.786,50.670 107.582,41.874 107.582,30.988 C107.582,20.101 98.786,11.233 87.899,11.233 ZM45.790,61.990 L37.499,61.990 C36.706,61.990 36.057,61.341 36.057,60.548 L36.057,26.806 L23.584,39.279 L11.111,26.806 L11.111,60.548 C11.111,61.341 10.534,61.990 9.741,61.990 L1.378,61.990 C0.657,61.990 0.008,61.341 0.008,60.548 L0.008,0.058 L23.584,23.634 L47.160,0.058 L47.160,60.548 C47.160,61.341 46.583,61.990 45.790,61.990 Z" class="cls-1"/>
</svg>
