<svg xmlns="http://www.w3.org/2000/svg" preserveAspectRatio="xMidYMid" width="532" height="126" viewBox="0 0 532 126"><defs><style>.cls-1{fill:#fff;fill-rule:evenodd}</style><clipPath id="clip-path-1"><path d="M-235.406-319.406h1024v768h-1024z"/></clipPath></defs><g clip-path="url(#clip-path-1)"><path d="M517.279 44.553v78.72h-35.2v-78.72h-19.68v-28h74.56v28h-19.68zm-68.879 71.6c-3.148 3.04-7.175 5.44-12.08 7.2-4.908 1.76-10.72 2.64-17.44 2.64-4.055 0-7.815-.188-11.28-.56-3.468-.375-6.535-.828-9.2-1.36-3.095-.535-5.92-1.173-8.48-1.92v-32a52.62 52.62 0 0 0 7.36 1.76c2.132.535 4.56.96 7.28 1.28 2.72.32 5.465.48 8.24.48 4.905 0 7.36-1.813 7.36-5.44 0-1.385-.748-2.8-2.24-4.24-1.495-1.44-3.388-3.04-5.68-4.8a303.802 303.802 0 0 1-7.36-5.84c-2.615-2.133-5.068-4.585-7.36-7.36-2.295-2.773-4.188-5.893-5.68-9.36-1.495-3.465-2.24-7.44-2.24-11.92 0-5.013.905-9.44 2.72-13.28 1.812-3.84 4.32-7.04 7.52-9.6 3.2-2.56 6.96-4.505 11.28-5.84 4.32-1.333 8.932-2 13.84-2 2.56 0 5.12.135 7.68.4l6.88.72c2.345.32 4.64.64 6.88.96v29.92c-.855-.105-1.815-.213-2.88-.32-.855-.105-1.815-.213-2.88-.32a34.346 34.346 0 0 0-3.36-.16c-.64 0-1.44.027-2.4.08a14.67 14.67 0 0 0-2.72.4c-.855.215-1.6.587-2.24 1.12-.64.535-.96 1.28-.96 2.24 0 .855.72 1.92 2.16 3.2 1.44 1.28 3.2 2.775 5.28 4.48 2.08 1.707 4.372 3.68 6.88 5.92 2.505 2.24 4.8 4.8 6.88 7.68s3.84 6.135 5.28 9.76c1.44 3.627 2.16 7.68 2.16 12.16 0 4.695-.748 9.095-2.24 13.2a28.08 28.08 0 0 1-6.96 10.72zm-82.999-20.56c-5.067 5.067-11.015 9.067-17.84 12-6.827 2.932-14.08 4.4-21.76 4.4-7.68 0-14.935-1.468-21.76-4.4-6.827-2.933-12.775-6.933-17.84-12-5.067-5.065-9.067-11.013-12-17.84-2.935-6.825-4.4-14.08-4.4-21.76 0-7.68 1.465-14.933 4.4-21.76 2.933-6.825 6.933-12.773 12-17.84 5.065-5.065 11.013-9.065 17.84-12 6.825-2.933 14.08-4.4 21.76-4.4 7.68 0 14.933 1.467 21.76 4.4 6.825 2.935 12.773 6.935 17.84 12 5.065 5.067 9.065 11.015 12 17.84 2.933 6.827 4.4 14.08 4.4 21.76 0 7.68-1.467 14.935-4.4 21.76-2.935 6.827-6.935 12.775-12 17.84zm-18.96-48.32c-1.175-2.72-2.775-5.093-4.8-7.12-2.027-2.025-4.4-3.625-7.12-4.8-2.72-1.173-5.627-1.76-8.72-1.76-3.095 0-6 .587-8.72 1.76-2.72 1.175-5.095 2.775-7.12 4.8-2.027 2.027-3.627 4.4-4.8 7.12-1.175 2.72-1.76 5.627-1.76 8.72 0 3.095.585 6 1.76 8.72 1.173 2.72 2.773 5.095 4.8 7.12 2.025 2.027 4.4 3.627 7.12 4.8 2.72 1.175 5.625 1.76 8.72 1.76 3.093 0 6-.585 8.72-1.76 2.72-1.173 5.093-2.773 7.12-4.8 2.025-2.025 3.625-4.4 4.8-7.12 1.173-2.72 1.76-5.625 1.76-8.72 0-3.093-.587-6-1.76-8.72zm-121.639 76l-16-27.04v27.04h-34.08V16.553h36.8c6.825 0 13.145.907 18.96 2.72 5.813 1.815 10.853 4.48 15.12 8 4.265 3.52 7.6 7.867 10 13.04 2.4 5.175 3.6 11.12 3.6 17.84 0 5.335-.747 9.867-2.24 13.6-1.495 3.735-3.147 6.827-4.96 9.28-2.135 2.775-4.535 5.12-7.2 7.04l20 35.2h-40zm-3.92-75.2c-2.827-1.813-6.267-2.72-10.32-2.72h-1.76v23.68h1.76c4.053 0 7.493-.905 10.32-2.72 2.825-1.813 4.24-4.853 4.24-9.12 0-4.265-1.415-7.305-4.24-9.12zm-86.959 8.32h28.32v26.56h-28.32v40.32h-34.08V16.553h62.88v28h-28.8v11.84zm-62.639 53.28c-5.388 4.48-12 7.867-19.84 10.16-7.84 2.295-16.775 3.44-26.8 3.44h-29.6V16.553h29.6c10.025 0 18.96 1.12 26.8 3.36 7.84 2.24 14.452 5.6 19.84 10.08 5.385 4.48 9.492 10.055 12.32 16.72 2.825 6.667 4.24 14.375 4.24 23.12 0 8.747-1.415 16.455-4.24 23.12-2.828 6.667-6.935 12.24-12.32 16.72zm-23.6-57.12c-4.375-3.733-10.56-5.6-18.56-5.6v45.92c8 0 14.185-1.893 18.56-5.68 4.372-3.785 6.56-9.573 6.56-17.36 0-7.785-2.188-13.545-6.56-17.28z" class="cls-1"/></g></svg>