<svg xmlns="http://www.w3.org/2000/svg" preserveAspectRatio="xMidYMid" width="280.125" height="62" viewBox="0 0 280.125 62"><defs><style>.cls-1{fill:#232323;fill-rule:evenodd}</style></defs><path d="M264.263 35.962l.361.649 1.586 2.74 11.463 20.332.072.144c.145.216.145.432.145.649 0 .865-.577 1.514-1.37 1.514h-9.661c-.505 0-.938-.289-1.154-.649l-.144-.217-12.329-21.773-1.514-2.74h-5.407v23.937c0 .793-.649 1.442-1.37 1.442h-8.435a1.446 1.446 0 0 1-1.442-1.442V25.364h10.31l-9.589-16.871v-.072l-.721-1.298V1.428c0-.721.648-1.37 1.442-1.37h21.052c6.561 0 12.257 1.802 16.294 5.263 3.966 3.316 6.273 8.075 6.273 13.049 0 7.571-5.408 15.285-15.862 17.592zm-6.705-24.657h-7.21l6.417 11.391 1.514 2.668c.721 0 1.442-.072 2.091-.144 5.84-.793 8.435-3.966 8.435-6.85 0-3.388-3.46-7.065-11.247-7.065zM194.324 61.99c-17.087 0-31.002-13.915-31.002-31.002 0-17.088 13.915-31.002 31.002-31.002s31.002 13.914 31.002 31.002c0 17.087-13.915 31.002-31.002 31.002zm0-50.757c-10.887 0-19.755 8.868-19.755 19.755 0 10.886 8.868 19.682 19.755 19.682 10.886 0 19.682-8.796 19.682-19.682 0-10.887-8.796-19.755-19.682-19.755zm-32.736 0h-13.771v48.954c0 .937-.649 1.731-1.37 1.731h-8.507c-.721 0-1.37-.794-1.37-1.731V11.233h-14.059a1.446 1.446 0 0 1-1.442-1.442V1.355c0-.793.649-1.369 1.442-1.369h39.077c.937 0 1.73.576 1.73 1.369v8.436c0 .793-.793 1.442-1.73 1.442zM87.899 61.99c-17.087 0-31.002-13.915-31.002-31.002C56.897 13.9 70.812-.014 87.899-.014s31.002 13.914 31.002 31.002c0 17.087-13.915 31.002-31.002 31.002zm0-50.757c-10.886 0-19.755 8.868-19.755 19.755 0 10.886 8.869 19.682 19.755 19.682 10.887 0 19.683-8.796 19.683-19.682 0-10.887-8.796-19.755-19.683-19.755zM45.79 61.99h-8.291a1.446 1.446 0 0 1-1.442-1.442V26.806L23.584 39.279 11.111 26.806v33.742c0 .793-.577 1.442-1.37 1.442H1.378c-.721 0-1.37-.649-1.37-1.442V.058l23.576 23.576L47.16.058v60.49c0 .793-.577 1.442-1.37 1.442z" class="cls-1"/></svg>